PathFileType	4	(X/Y/Z)	C:/Users/beibeiliu/ov580/test_trc/User2\sequence.12_training_dense_left.trc
DataRate	CameraRate	NumFrames	NumMarkers	Units	OrigDataRate	OrigDataStartFrame	OrigNumFrames
120	120	11	19	mm	120	1	446
Frame#	Time	ThumbCMC			ThumbMCP			ThumbIP			ThumbTip			IndexMCP			IndexPIP			IndexTip			MiddleMCP			MiddlePIP			MiddleTip			RingMCP			RingPIP			RingTip			PinkyMCP			PinkyPIP			PinkyTip			BackHand1			BackHand2			BackHand3	
		X0	Y0	Z0	X1	Y1	Z1	X2	Y2	Z2	X3	Y3	Z3	X4	Y4	Z4	X5	Y5	Z5	X6	Y6	Z6	X7	Y7	Z7	X8	Y8	Z8	X9	Y9	Z9	X10	Y10	Z10	X11	Y11	Z11	X12	Y12	Z12	X13	Y13	Z13	X14	Y14	Z14	X15	Y15	Z15	X16	Y16	Z16	X17	Y17	Z17	X18	Y18	Z18	
0	0	-141.375	-48.3216	138.9	-123.369	-61.5184	118.905	-100.131	-70.6214	94.1893	-85.4015	-81.2653	73.957	-171.322	-36.3186	60.9787	-166.345	-35.3913	33.8775	-164.882	-33.4159	1.11446	-199.766	-33.8024	57.2482	-206.725	-30.9095	26.4032	-214.983	-29.5568	-3.96582	-223.424	-42.185	65.4905	-232.69	-41.0297	44.3341	-242.454	-40.301	17.1202	-244.453	-57.3379	88.5028	-256.171	-58.4455	70.1961	-267.809	-51.4714	48.2417	-213.944	-36.0718	117.471	-209.591	-28.7312	154.399	-178.422	-26.2868	128.172	
1	0.00833333	-143.881	-49.2155	136.846	-123.28	-60.642	117.592	-105.908	-71.611	93.1748	-86.9107	-82.0439	74.3311	-172.51	-35.8917	59.306	-168.753	-34.2493	29.6529	-167.486	-33.9661	0.0872158	-200.195	-32.7808	54.7639	-206.05	-30.5093	28.6569	-215.771	-29.0729	-4.15055	-227.899	-42.1147	68.6678	-232.56	-40.9844	43.4908	-244.048	-38.6328	12.136	-241.257	-57.67	91.2513	-260.243	-56.2053	66.5146	-270.856	-50.4939	51.1269	-216.238	-37.3009	121.546	-209.972	-27.8561	151.446	-178.549	-27.2166	126.394	
2	0.0166667	-144.132	-49.6022	138.921	-125.439	-61.0534	120.342	-102.075	-71.8223	90.9389	-89.8894	-82.0417	77.996	-167.592	-35.341	56.0069	-169.026	-34.8761	31.9029	-163.722	-33.6288	4.40324	-202.333	-32.9698	58.5299	-206.859	-30.586	27.5761	-212.791	-28.6311	-2.71154	-222.637	-41.6827	69.3798	-234.455	-40.8013	39.3565	-244.759	-39.6545	13.2625	-243.449	-56.1113	91.0925	-259.727	-56.7662	68.6484	-270.326	-52.3599	49.4375	-217.226	-36.4749	121.188	-209.39	-29.2861	151.312	-179.857	-27.3425	129.569	
3	0.025	-141.14	-48.7833	133.792	-125.624	-61.2091	116.988	-103.899	-71.8068	92.381	-88.9526	-82.0099	79.2721	-170.342	-35.614	56.344	-164.843	-33.3853	28.547	-169.087	-34.4651	5.09262	-199.809	-32.9391	59.3432	-207.635	-30.0003	25.4259	-215.795	-28.8403	-3.22375	-223.07	-40.9038	66.6259	-234.956	-40.7063	40.7767	-241.143	-39.789	17.1251	-238.717	-56.394	90.3115	-255.566	-54.5995	67.3157	-270.324	-49.4925	50.5784	-215.684	-37.2221	117.938	-213.121	-29.1323	150.661	-178.696	-26.7128	126.147	
4	0.0333333	-145.248	-49.4475	137.721	-124.19	-61.0126	115.21	-101.365	-71.3692	93.9411	-86.166	-81.7784	77.7465	-167.746	-34.8836	59.7996	-166.507	-33.5385	33.4605	-164.439	-32.9809	5.51916	-198.647	-30.4334	53.776	-205.217	-29.8059	22.7157	-212.943	-28.0844	-2.11597	-227.508	-42.2894	68.6685	-234.489	-39.625	39.2921	-244.789	-39.7805	13.4146	-244.887	-56.5318	90.3164	-254.116	-55.5192	67.7952	-270.756	-49.4363	50.4502	-216.604	-35.5655	118.686	-207.871	-27.8451	148.336	-179.438	-27.6613	126.241	
5	0.0416667	-145.005	-49.2784	133.573	-125.398	-60.5066	115.915	-103.916	-71.2605	89.731	-86.0699	-81.6833	76.385	-167.17	-35.249	60.9869	-169.445	-34.0941	29.322	-165.232	-33.6652	5.40653	-202.723	-32.1394	55.3556	-205.929	-29.5357	25.8473	-216.537	-28.9375	-2.77572	-228.316	-42.3531	68.9671	-237.701	-40.5996	40.7026	-245.729	-40.2997	17.1141	-242.766	-55.4393	90.1975	-253.756	-56.0299	69.8974	-271.13	-51.8985	50.7631	-212.845	-35.3493	121.736	-209.857	-28.8137	151.004	-176.144	-27.1213	127.154	
6	0.05	-142.626	-48.9011	133.529	-122.964	-61.0637	115.184	-105.374	-73.5245	94.206	-89.2382	-82.8734	76.9184	-171.304	-35.5041	55.6324	-165.95	-35.2129	33.0914	-167.537	-34.8196	4.74025	-203.923	-32.6656	54.7365	-205.663	-30.6326	27.8323	-215.267	-28.0409	-4.84579	-223.363	-42.3228	69.5987	-235.822	-41.4392	42.976	-243.713	-38.5352	12.6504	-245.125	-56.4809	90.6967	-259.031	-55.6858	66.2552	-271.84	-51.1594	49.3638	-211.667	-37.5201	121.755	-211.114	-28.8946	152.707	-179.434	-25.9647	128.655	
7	0.0583333	-142.574	-48.1417	138.041	-123.65	-61.7038	118.356	-101.166	-72.6936	91.0693	-85.9294	-83.5838	77.8057	-170.049	-34.7853	56.6318	-165.126	-34.872	27.8337	-168.168	-35.0403	4.04407	-201.966	-32.6087	54.2919	-206.782	-31.1121	26.4943	-212.212	-28.9512	-8.73234	-223.538	-41.7052	67.8935	-238.153	-41.9178	42.634	-244.88	-40.6724	16.0498	-245.843	-55.2527	87.9925	-256.249	-56.627	68.2575	-272.725	-51.4536	45.9274	-217.093	-37.5702	122.215	-211.5	-29.0822	150.335	-176.902	-24.7447	126.822	
8	0.0666667	-143.142	-49.5475	135.308	-124.406	-63.234	115.722	-105.624	-75.2531	92.737	-88.5332	-86.4247	73.5709	-169.544	-35.002	58.7288	-165.806	-34.8582	26.8021	-161.917	-36.6292	-0.997754	-200.626	-32.7402	57.3394	-209.486	-31.2132	22.9925	-213.624	-30.6753	-6.29491	-225.92	-42.0566	66.5205	-237.279	-42.3014	42.4703	-242.378	-41.0488	12.0366	-243.669	-57.4451	91.5093	-255.264	-57.6074	68.5124	-271.818	-52.9903	47.435	-214.86	-38.4824	119.792	-212.099	-30.5514	153.253	-178.745	-27.3773	128.348	
9	0.075	-144.958	-48.4633	137.034	-119.98	-62.5177	116.855	-100.863	-74.7804	95.0669	-92.2074	-88.8412	76.2817	-167.612	-33.0748	57.2659	-167.003	-33.8289	31.0031	-163.877	-36.6493	1.38352	-199.29	-30.1956	54.8566	-204.427	-28.6986	24.3049	-211.471	-30.1038	-5.508	-222.705	-40.4348	64.1457	-236.888	-41.9348	43.4024	-242.116	-42.5066	13.0903	-238.221	-57.8923	88.8545	-256.137	-58.6981	64.9752	-267.887	-55.3647	45.1533	-217.672	-38.5594	120.64	-213.268	-30.862	149.175	-178.434	-25.7782	129.421	
10	0.0833333	-142.643	-44.1679	134.819	-121.435	-59.027	116.564	-102.656	-72.8681	91.2659	-90.8636	-85.5975	70.9601	-169.193	-27.6051	56.3694	-162.62	-28.1004	29.8274	-161.435	-35.0361	-1.18172	-200.681	-25.6081	53.5876	-204.437	-24.896	25.1169	-213.616	-27.1406	-5.52245	-227.02	-40.7214	66.5381	-234.883	-39.6504	41.3672	-239.653	-39.1589	9.94752	-236.882	-57.1372	86.502	-252.99	-57.3327	62.7093	-264.726	-55.5635	42.3966	-217.613	-37.9015	120.707	-213.523	-32.5998	148.353	-181.991	-22.8026	129.584	
